<svg width="24" height="20" viewBox="0 0 24 20" fill="none" xmlns="http://www.w3.org/2000/svg">
<path d="M17 18.0359V16.143C17 15.1389 16.5786 14.176 15.8284 13.466C15.0783 12.756 14.0609 12.3572 13 12.3572H5C3.93913 12.3572 2.92172 12.756 2.17157 13.466C1.42143 14.176 1 15.1389 1 16.143V18.0359" stroke="#F15C41" stroke-width="2" stroke-linecap="round" stroke-linejoin="round"/>
<path d="M9 8.57153C11.2091 8.57153 13 6.87659 13 4.78577C13 2.69495 11.2091 1 9 1C6.79086 1 5 2.69495 5 4.78577C5 6.87659 6.79086 8.57153 9 8.57153Z" stroke="#F15C41" stroke-width="2" stroke-linecap="round" stroke-linejoin="round"/>
<path d="M23 18.0359V16.1431C22.9993 15.3043 22.7044 14.4895 22.1614 13.8266C21.6184 13.1636 20.8581 12.6902 20 12.4805" stroke="#F15C41" stroke-width="2" stroke-linecap="round" stroke-linejoin="round"/>
<path d="M16 1.12305C16.8604 1.33155 17.623 1.80515 18.1676 2.46919C18.7122 3.13322 19.0078 3.94992 19.0078 4.79053C19.0078 5.63113 18.7122 6.44783 18.1676 7.11187C17.623 7.7759 16.8604 8.2495 16 8.45801" stroke="#F15C41" stroke-width="2" stroke-linecap="round" stroke-linejoin="round"/>
</svg>
